<?xml version="1.0" encoding="UTF-8" standalone="no"?>
<!-- Created with Inkscape (http://www.inkscape.org/) -->

<svg
   xmlns:dc="http://purl.org/dc/elements/1.1/"
   xmlns:cc="http://creativecommons.org/ns#"
   xmlns:rdf="http://www.w3.org/1999/02/22-rdf-syntax-ns#"
   xmlns:svg="http://www.w3.org/2000/svg"
   xmlns="http://www.w3.org/2000/svg"
   xmlns:sodipodi="http://sodipodi.sourceforge.net/DTD/sodipodi-0.dtd"
   xmlns:inkscape="http://www.inkscape.org/namespaces/inkscape"
   width="501.60272"
   height="342.10568"
   id="svg2"
   version="1.1"
   inkscape:version="0.48.4 r9939"
   sodipodi:docname="icon_reading_from_graph.svg">
  <defs
     id="defs4">
    <clipPath
       id="clipPath3045"
       clipPathUnits="userSpaceOnUse">
      <path
         id="path3047"
         d="m -141.73811,0 0,161.39682 477.74534,0 0,-161.39682"
         inkscape:connector-curvature="0" />
    </clipPath>
    <clipPath
       id="clipPath3029"
       clipPathUnits="userSpaceOnUse">
      <path
         id="path3031"
         d="m 0,-141.74278 194.26912,0 0,444.88238 -194.26912,0"
         inkscape:connector-curvature="0" />
    </clipPath>
  </defs>
  <sodipodi:namedview
     id="base"
     pagecolor="#ffffff"
     bordercolor="#666666"
     borderopacity="1.0"
     inkscape:pageopacity="0.0"
     inkscape:pageshadow="2"
     inkscape:zoom="1.7175294"
     inkscape:cx="138.90678"
     inkscape:cy="149.08093"
     inkscape:document-units="px"
     inkscape:current-layer="g3015"
     showgrid="false"
     inkscape:window-width="1920"
     inkscape:window-height="1003"
     inkscape:window-x="-9"
     inkscape:window-y="-9"
     inkscape:window-maximized="1"
     fit-margin-top="0.5"
     fit-margin-left="0.5"
     fit-margin-bottom="0.5"
     fit-margin-right="0.5" />
  <metadata
     id="metadata7">
    <rdf:RDF>
      <cc:Work
         rdf:about="">
        <dc:format>image/svg+xml</dc:format>
        <dc:type
           rdf:resource="http://purl.org/dc/dcmitype/StillImage" />
        <dc:title></dc:title>
      </cc:Work>
    </rdf:RDF>
  </metadata>
  <g
     inkscape:label="Livello 1"
     inkscape:groupmode="layer"
     id="layer1"
     transform="translate(-217.70903,-351.29091)">
    <g
       id="g3001"
       transform="matrix(1.25,0,0,-1.25,221.47891,670.00243)" />
    <g
       id="g3003"
       transform="matrix(1.25,0,0,-1.25,221.47891,670.00243)" />
    <g
       transform="matrix(1.875,0,0,-1.875,221.47891,670.00243)"
       id="g3005">
      <g
         id="g3007" />
    </g>
    <g
       id="g3009"
       transform="matrix(1.25,0,0,-1.25,221.47891,670.00243)" />
    <g
       id="g3011"
       transform="matrix(1.25,0,0,-1.25,221.47891,670.00243)" />
    <g
       id="g3013"
       transform="matrix(1.25,0,0,-1.25,221.47891,670.00243)" />
    <g
       transform="matrix(1.875,0,0,-1.875,145.14141,727.92118)"
       id="g3015">
      <g
         id="g3049"
         transform="translate(48.532733,28.283422)" />
      <g
         id="g3353"
         transform="translate(48.532733,28.283422)">
        <g
           id="g3355"
           transform="translate(179.347,159.265)">
          <g
             id="g3357" />
          <g
             id="g3359"
             transform="translate(-179.347,-159.265)" />
        </g>
      </g>
      <g
         id="g3391"
         transform="translate(48.532733,28.283422)">
        <g
           id="g3393"
           transform="translate(179.325,150.391)">
          <g
             id="g3395" />
          <g
             id="g3397"
             transform="translate(-179.325,-150.391)" />
        </g>
      </g>
      <g
         id="g3425"
         transform="translate(48.532733,28.283422)">
        <g
           id="g3427"
           transform="translate(179.292,139.544)">
          <g
             id="g3429" />
          <g
             id="g3431"
             transform="translate(-179.292,-139.544)" />
        </g>
      </g>
      <g
         id="g3459"
         transform="translate(48.532733,28.283422)">
        <g
           id="g3461"
           transform="translate(179.244,126.028)">
          <g
             id="g3463" />
          <g
             id="g3465"
             transform="translate(-179.244,-126.028)" />
        </g>
      </g>
      <g
         id="g3493"
         transform="translate(48.532733,28.283422)">
        <g
           id="g3495"
           transform="translate(179.165,108.855)">
          <g
             id="g3497" />
          <g
             id="g3499"
             transform="translate(-179.165,-108.855)" />
        </g>
      </g>
      <g
         id="g3527"
         transform="translate(48.532733,28.283422)">
        <g
           id="g3529"
           transform="translate(179.025,86.656)">
          <g
             id="g3531" />
          <g
             id="g3533"
             transform="translate(-179.025,-86.656)" />
        </g>
      </g>
      <g
         id="g3561"
         transform="translate(48.532733,28.283422)">
        <g
           id="g3563"
           transform="translate(178.748,57.007)">
          <g
             id="g3565" />
          <g
             id="g3567"
             transform="translate(-178.748,-57.007)" />
        </g>
      </g>
      <g
         id="g3595"
         transform="translate(48.532733,28.283422)">
        <g
           id="g3597"
           transform="translate(178.227,19.446)">
          <g
             id="g3599" />
          <g
             id="g3601"
             transform="translate(-178.227,-19.446)" />
        </g>
      </g>
      <g
         transform="translate(61.07,46.335)"
         id="g3765" />
      <g
         id="g3053"
         transform="translate(48.532733,28.283422)"
         style="stroke-width:2.66666675;stroke-miterlimit:9.14285755;stroke-dasharray:none" />
      <path
         inkscape:connector-curvature="0"
         d="m 48.532733,28.283422 244.244387,0"
         style="fill:none;stroke:#000000;stroke-width:9.6;stroke-linecap:square;stroke-linejoin:miter;stroke-miterlimit:9.14285755;stroke-opacity:1;stroke-dasharray:none"
         id="path3059"
         sodipodi:nodetypes="cc" />
      <g
         id="g3061"
         transform="matrix(1.8814852,0,0,1.8814852,193.49917,28.283422)"
         style="stroke-width:2.66666675;stroke-miterlimit:9.14285755;stroke-dasharray:none">
        <g
           id="g3063"
           style="stroke-width:2.66666675;stroke-miterlimit:9.14285755;stroke-dasharray:none">
          <path
             inkscape:connector-curvature="0"
             d="M 58.450872,5.0000022e-8 50.891837,3.7795276 53.726477,5.0000022e-8 50.891837,-3.7795275 z"
             style="fill:#000000;fill-opacity:1;fill-rule:nonzero;stroke:#000000;stroke-width:2.64566922;stroke-linecap:round;stroke-linejoin:round;stroke-miterlimit:9.14285755;stroke-opacity:1;stroke-dasharray:none"
             id="path3065"
             sodipodi:nodetypes="ccccc" />
        </g>
      </g>
      <path
         inkscape:connector-curvature="0"
         d="m 48.532733,28.283422 0,159.105418"
         style="fill:none;stroke:#000000;stroke-width:9.6;stroke-linecap:square;stroke-linejoin:miter;stroke-miterlimit:9.14285755;stroke-opacity:1;stroke-dasharray:none"
         id="path3069" />
      <g
         id="g3073"
         transform="matrix(0,3.8792604,-3.8792604,0,48.532733,189.24947)"
         style="stroke-width:1.29336095;stroke-miterlimit:9.14285755;stroke-dasharray:none">
        <path
           id="path3075"
           style="fill:#000000;fill-opacity:1;fill-rule:nonzero;stroke:#000000;stroke-width:1.28317702;stroke-linecap:round;stroke-linejoin:round;stroke-miterlimit:9.14285755;stroke-opacity:1;stroke-dasharray:none"
           d="M 2.29138,0 -1.37483,1.83311 0,0 -1.37483,-1.83311 z"
           inkscape:connector-curvature="0"
           sodipodi:nodetypes="ccccc" />
      </g>
      <path
         style="fill:none;stroke:#000000;stroke-width:10.66666698;stroke-linecap:butt;stroke-linejoin:miter;stroke-miterlimit:9.14285755;stroke-opacity:1;stroke-dasharray:none"
         d="m 65.20392,80.887329 c 16.772169,17.679968 52.35871,35.946721 79.77767,38.994081 27.41895,3.04737 54.99584,1.50367 81.88589,7.76684 17.70228,4.12317 34.57275,17.83643 51.7808,30.36378"
         id="path3491"
         inkscape:connector-curvature="0"
         sodipodi:nodetypes="cssc" />
      <path
         style="fill:none;stroke:#000000;stroke-width:6.9333334;stroke-linecap:butt;stroke-linejoin:miter;stroke-miterlimit:9.14285755;stroke-opacity:1;stroke-dasharray:13.86666667, 6.93333333;stroke-dashoffset:0"
         d="m 176.43708,27.921581 0,71.939696 -127.301465,0"
         id="path8153"
         inkscape:connector-curvature="0"
         sodipodi:nodetypes="ccc" />
      <path
         sodipodi:type="arc"
         style="fill:#03004b;fill-opacity:1;stroke:none"
         id="path8158"
         sodipodi:cx="467.03793"
         sodipodi:cy="171.80569"
         sodipodi:rx="9"
         sodipodi:ry="9"
         d="m 476.03793,171.80569 a 9,9 0 1 1 -18,0 9,9 0 1 1 18,0 z"
         transform="matrix(0.81346386,0,0,-0.81346386,-203.17857,239.64096)" />
      <path
         sodipodi:nodetypes="cssc"
         inkscape:connector-curvature="0"
         id="path8163"
         d="m 65.20392,51.020647 c 22.639863,12.776088 52.35871,19.946676 79.77767,22.994027 27.41895,3.047361 45.53004,3.389267 82.49772,1.04473 25.549,-1.62035 29.98401,17.530497 51.7808,29.140076"
         style="fill:none;stroke:#000000;stroke-width:10.66666698;stroke-linecap:butt;stroke-linejoin:miter;stroke-miterlimit:9.14285755;stroke-opacity:1;stroke-dasharray:none" />
      <path
         sodipodi:nodetypes="cssc"
         inkscape:connector-curvature="0"
         id="path8165"
         d="m 66.270587,119.2874 c 24.475357,26.84827 51.292043,33.81343 78.711003,36.86079 27.41895,3.04737 54.68992,5.52096 81.57997,11.78413 17.70229,4.12317 34.87867,13.81914 52.08672,26.34649"
         style="fill:none;stroke:#000000;stroke-width:10.66666698;stroke-linecap:butt;stroke-linejoin:miter;stroke-miterlimit:9.14285755;stroke-opacity:1;stroke-dasharray:none" />
      <g
         id="g8205">
        <g
           id="g8167"
           clip-path="url(#clipPath3029)"
           transform="translate(48.532733,-227.71701)">
          <g
             id="g8169" />
          <g
             id="g8171">
            <path
               inkscape:connector-curvature="0"
               d="m 27.75273,-2.12604 0,4.25208 m 27.75273,-4.25208 0,4.25208 m 27.75274,-4.25208 0,4.25208 m 27.75273,-4.25208 0,4.25208 m 27.75273,-4.25208 0,4.25208 m 27.75273,-4.25208 0,4.25208 m 27.75273,-4.25208 0,4.25208"
               style="fill:none;stroke:#808080;stroke-width:1.06666672;stroke-linecap:butt;stroke-linejoin:miter;stroke-miterlimit:10;stroke-opacity:1;stroke-dasharray:none"
               id="path8173"
               sodipodi:nodetypes="cccccccccccccc" />
          </g>
        </g>
        <g
           id="g8175"
           transform="translate(48.532733,-227.71701)"
           style="stroke-width:1.06666672;stroke-miterlimit:10;stroke-dasharray:none">
          <path
             id="path8177"
             style="fill:none;stroke:#808080;stroke-width:1.06666672;stroke-linecap:butt;stroke-linejoin:miter;stroke-miterlimit:10;stroke-opacity:1;stroke-dasharray:none"
             d="m -2.12596,6.86794 4.25192,0 m -4.25192,17.16987 4.25192,0 m -4.25192,17.16988 4.25192,0 m -4.25192,17.16987 4.25192,0 m -4.25192,17.16988 4.25192,0 m -4.25192,17.16988 4.25192,0 m -4.25192,17.16987 4.25192,0 m -4.25192,17.16988 4.25192,0 m -4.25192,17.16987 4.25192,0"
             inkscape:connector-curvature="0" />
        </g>
        <path
           inkscape:connector-curvature="0"
           d="m 48.532733,-227.71701 244.244387,0"
           style="fill:none;stroke:#000000;stroke-width:1.17333329;stroke-linecap:butt;stroke-linejoin:miter;stroke-miterlimit:10;stroke-opacity:1;stroke-dasharray:none"
           id="path8179"
           sodipodi:nodetypes="cc" />
        <g
           id="g8181"
           transform="translate(238.37711,-227.71701)">
          <g
             id="g8183">
            <path
               inkscape:connector-curvature="0"
               d="M 58.450872,5.0000022e-8 50.891837,3.7795276 53.726477,5.0000022e-8 50.891837,-3.7795275"
               style="fill:#000000;fill-opacity:1;fill-rule:nonzero;stroke:none"
               id="path8185"
               sodipodi:nodetypes="cccc" />
          </g>
        </g>
        <path
           inkscape:connector-curvature="0"
           d="m 48.532733,-227.71701 0,159.105533"
           style="fill:none;stroke:#000000;stroke-width:1.27999997;stroke-linecap:butt;stroke-linejoin:miter;stroke-miterlimit:10;stroke-opacity:1;stroke-dasharray:none"
           id="path8187" />
        <g
           id="g8189"
           transform="matrix(0,2.0618117,-2.0618117,0,48.532733,-69.285007)">
          <path
             id="path8191"
             style="fill:#000000;fill-opacity:1;fill-rule:nonzero;stroke:none"
             d="M 2.29138,0 -1.37483,1.83311 0,0 -1.37483,-1.83311"
             inkscape:connector-curvature="0" />
        </g>
        <path
           style="fill:none;stroke:#000000;stroke-width:1.91999996;stroke-linecap:butt;stroke-linejoin:miter;stroke-miterlimit:10;stroke-opacity:1;stroke-dasharray:none"
           d="m 65.20392,-169.77961 c 20.498452,17.05896 52.35871,29.54676 79.77767,32.59412 27.41895,3.04737 54.99584,1.50367 81.88589,7.76684 17.70228,4.12317 34.57275,17.83643 51.7808,30.363777"
           id="path8193"
           inkscape:connector-curvature="0"
           sodipodi:nodetypes="cssc" />
        <path
           id="path8195"
           style="fill:none;stroke:#808080;stroke-width:1.06666672;stroke-linecap:butt;stroke-linejoin:miter;stroke-miterlimit:10;stroke-opacity:1;stroke-dasharray:none"
           d="m 270.55458,-229.84305 0,4.25209"
           inkscape:connector-curvature="0"
           sodipodi:nodetypes="cc" />
        <path
           style="fill:none;stroke:#000000;stroke-width:1.33333337;stroke-linecap:butt;stroke-linejoin:miter;stroke-miterlimit:4;stroke-opacity:1;stroke-dasharray:4, 1.33333334;stroke-dashoffset:0"
           d="m 176.43708,-228.07885 0,80.47324 -127.301465,0"
           id="path8197"
           inkscape:connector-curvature="0"
           sodipodi:nodetypes="ccc" />
        <path
           sodipodi:type="arc"
           style="fill:#03004b;fill-opacity:1;stroke:none"
           id="path8199"
           sodipodi:cx="467.03793"
           sodipodi:cy="171.80569"
           sodipodi:rx="9"
           sodipodi:ry="9"
           d="m 476.03793,171.80569 c 0,4.97057 -4.02943,9 -9,9 -4.97056,0 -9,-4.02943 -9,-9 0,-4.97056 4.02944,-9 9,-9 4.97057,0 9,4.02944 9,9 z"
           transform="matrix(0.26882306,0,0,-0.26882306,50.823289,-101.11389)" />
        <path
           sodipodi:nodetypes="cssc"
           inkscape:connector-curvature="0"
           id="path8201"
           d="m 65.20392,-194.31302 c 22.639863,12.77612 52.35871,19.94673 79.77767,22.99409 27.41895,3.04737 45.53004,3.38928 82.49772,1.04474 25.549,-1.62036 29.98401,17.53054 51.7808,29.14014"
           style="fill:none;stroke:#000000;stroke-width:1.91999996;stroke-linecap:butt;stroke-linejoin:miter;stroke-miterlimit:10;stroke-opacity:1;stroke-dasharray:none" />
        <path
           sodipodi:nodetypes="cssc"
           inkscape:connector-curvature="0"
           id="path8203"
           d="m 66.270587,-140.97951 c 24.475357,26.84827 51.292043,33.81343 78.711003,36.86079 27.41895,3.04737 54.68992,5.520957 81.57997,11.784109 17.70229,4.123158 34.87867,13.819101 52.08672,26.346415"
           style="fill:none;stroke:#000000;stroke-width:1.91999996;stroke-linecap:butt;stroke-linejoin:miter;stroke-miterlimit:10;stroke-opacity:1;stroke-dasharray:none" />
      </g>
    </g>
    <g
       id="g3767"
       transform="matrix(1.25,0,0,-1.25,221.47891,670.00243)" />
  </g>
</svg>
